<svg width="192" height="38" viewBox="0 0 192 38" fill="none" xmlns="http://www.w3.org/2000/svg">
<path d="M29.2346 5.42871C18.6255 5.42871 5.42871 16.4057 5.42871 25.5033C5.42871 30.2018 9.03773 32.5716 13.8044 32.5716C17.3044 32.5716 21.5399 31.2914 25.6256 28.8263V10.6721C24.5361 12.5379 19.4154 20.0556 15.3024 24.0596C13.2051 26.1025 11.5436 26.9877 10.1136 26.9877C8.50659 26.9877 7.74394 25.8982 7.74394 24.2775C7.74394 16.9232 20.1235 7.36262 28.3221 7.36262C31.6996 7.36262 33.8787 8.86072 33.8787 11.7752C33.8787 14.4445 32.0674 17.7948 28.9759 20.8864V26.5111C34.369 22.2483 37.5966 16.8143 37.5966 12.4289C37.5966 7.81205 34.0012 5.42871 29.2346 5.42871Z" fill="#3643BA"/>
<path d="M60.5861 28.5001H73.4245V24.3744H65.4718V20.9137H72.5153V17.073H65.4718V13.6123H73.4245V9.50012H60.5861V28.5001ZM89.3572 20.3165C87.4979 23.2751 85.693 24.5101 83.3723 24.5101C80.3595 24.5101 78.6088 22.393 78.6088 18.7151C78.6088 15.2273 80.2237 13.4901 82.7073 13.4901C84.3494 13.4901 85.7065 14.223 86.1273 16.6658H91.0129C90.4836 12.0108 87.5115 9.12012 82.7616 9.12012C77.2516 9.12012 73.6281 13.0151 73.6281 18.9865C73.6281 24.9987 77.2516 28.8801 83.2094 28.8801C87.1044 28.8801 89.7508 27.2515 91.5015 25.053H98.165V28.5001H103.023V9.50012H96.1293L89.3572 20.3165ZM98.165 21.2394H93.8629L98.165 14.2501V21.2394ZM50.1634 9.50012H43.0249V28.5001H50.1634C55.8226 28.5001 59.4733 24.768 59.4733 19.0001C59.4733 13.2323 55.8226 9.50012 50.1634 9.50012ZM50.0955 24.3744H47.9106V13.6123H50.0955C52.9184 13.6123 54.5062 15.6073 54.5062 19.0001C54.5062 22.3794 52.9184 24.3744 50.0955 24.3744ZM159.1 9.12012C153.359 9.12012 149.505 13.0151 149.505 19.0001C149.505 24.9851 153.359 28.8801 159.1 28.8801C164.854 28.8801 168.695 24.9851 168.695 19.0001C168.695 13.0151 164.854 9.12012 159.1 9.12012ZM159.1 24.5101C156.277 24.5101 154.499 22.6237 154.499 19.0001C154.499 15.3765 156.277 13.4901 159.1 13.4901C161.936 13.4901 163.701 15.3765 163.701 19.0001C163.701 22.6237 161.936 24.5101 159.1 24.5101ZM104.245 13.6123H109.036V28.5001H113.921V13.6123H118.712V9.50012H104.245L104.245 13.6123ZM181.167 9.50012V19.9637L174.87 9.50012H169.808V28.5001H174.53V17.6023L181.085 28.5001H185.89V9.50012L181.167 9.50012ZM142.584 9.50012H137.698V28.5001H149.953V24.388H142.584V9.50012ZM131.401 16.7473H124.819V9.50012H119.933V28.5001H124.819V20.8458H131.401V28.5001H136.287V9.50012H131.401V16.7473Z" fill="#3643BA"/>
</svg>
